<svg width="223" height="505" viewBox="0 0 223 505" fill="none" xmlns="http://www.w3.org/2000/svg">
<path d="M162.687 238.054C139.957 260.381 100.631 268.88 100.65 268.843C119.154 264.271 137.909 259.68 156.824 259.774C175.739 259.867 195.149 265.206 207.912 277.997C225.536 295.668 226.817 324.512 216.43 347.737C206.042 370.972 185.949 389.344 164.472 404.398C118.162 436.851 63.821 456.785 9.18961 472.306C-71.9113 495.344 -156.444 509.593 -239.583 503.376C-270.147 501.085 -304.368 495.148 -327.172 472.867C-360.636 440.189 -345.04 391.916 -313.802 364.165C-289.726 342.773 -258.563 330.627 -228.204 318.977C-261.181 331.674 -296.215 343.006 -330.894 339.322C-368.2 335.339 -406.525 308.272 -403.869 267.048C-400.943 221.607 -353.511 179.832 -319.945 152.774C-271.307 113.57 -215.348 83.1638 -159.08 56.5166C-159.08 56.5166 -84.3934 20.8 12.5742 2.88567C32.6017 -0.81688 60.3521 -2.49051 89.7856 9.59889C113.516 19.3508 132.907 40.9584 132.617 65.9413C132.402 84.6971 121.304 102.602 106.662 115.739C92.0202 128.885 74.0217 137.973 56.126 146.621C56.1073 146.593 93.7966 126.51 126.287 130.484C147.699 133.102 177.188 147.463 184.696 174.409C193.7 206.741 165.071 235.707 162.687 238.045V238.054Z" fill="#D9FF63"/>
</svg>
