<svg width="194" height="69" viewBox="0 0 194 69" fill="none" xmlns="http://www.w3.org/2000/svg">
<path d="M47.1847 12.1238C46.7263 6.98806 42.3028 3.50057 37.8411 1.6777C32.6945 -0.426256 27.0375 -0.478102 21.7408 1.11282C20.1417 1.5931 18.559 2.20164 17.0854 2.99301C10.2114 6.69061 5.87251 12.1811 4.79461 18.5148C3.23916 18.5393 1.64005 18.5366 0 18.5011V31.818C2.49964 31.8644 4.90649 31.8534 7.23148 31.7798C7.54257 32.2846 7.8864 32.7922 8.26844 33.2888C9.11712 34.3995 10.6016 36.0259 12.8529 37.4803C16.9735 40.141 21.6753 40.9351 25.8942 40.9324C29.2643 40.9324 32.3233 40.4275 34.5283 39.9581C34.8175 39.3414 37.3526 33.8974 37.6501 33.2615C37.8848 32.7567 40.2234 27.7438 40.4635 27.228C38.3514 27.8147 35.8463 28.3578 33.0028 28.6825C30.4732 28.9718 28.17 29.0345 26.167 28.9772C31.693 27.5255 35.8545 25.9045 37.983 24.7611C39.694 23.8415 41.083 22.8127 41.083 22.8127C41.8634 22.2342 42.6603 21.5684 43.4626 20.7961C44.6032 19.6936 45.6047 18.4247 46.2869 16.9839C47.0619 15.3411 47.3266 13.6956 47.1875 12.1238H47.1847ZM20.079 17.0712C19.8497 16.5609 21.9182 15.1937 22.3712 14.8936C23.5255 14.1295 25.9023 12.8305 28.9423 12.9615C29.6218 12.9916 30.8743 13.0461 30.9535 13.4445C31.0899 14.1186 27.7771 15.2947 26.5682 15.7231C26.238 15.8405 20.4419 17.8789 20.079 17.0739V17.0712Z" fill="white"/>
<path d="M88.7534 0.0212777L77.8653 18.875C77.224 17.5815 76.3835 16.0615 74.8663 14.5334C73.0025 12.6586 71.0049 11.6462 69.6569 11.1305C69.5723 11.0977 69.485 11.065 69.4004 11.035L75.7614 0.0212777H88.7562H88.7534Z" fill="white"/>
<path d="M96.8108 11.838C100.426 11.2005 102.895 8.06435 102.326 4.83322C101.756 1.60209 98.3631 -0.500449 94.7476 0.137068C91.1321 0.774585 88.6629 3.91074 89.2327 7.14187C89.8024 10.373 93.1953 12.4755 96.8108 11.838Z" fill="white"/>
<path d="M139.442 0.0212777L135.927 7.56931C134.5 6.52688 132.89 5.67821 131.141 5.06148C126.458 3.41052 121.148 3.49784 116.187 5.30162C111.223 7.10813 107.1 10.4537 104.575 14.7271C101.841 19.3553 101.26 24.7175 102.979 29.4438C104.698 34.1702 108.592 37.9033 113.66 39.6934C115.813 40.4521 118.097 40.8423 120.419 40.8696C120.504 40.8696 120.586 40.8696 120.67 40.8696C123.32 40.8696 126.013 40.3948 128.611 39.4506C131.899 38.2526 134.931 36.3315 137.352 33.7991C140.512 30.4917 141.969 26.0874 143.86 22.0241C145.173 19.2024 146.488 16.3808 147.801 13.5564C149.902 9.04289 152.003 4.52935 154.104 0.0158188H139.437L139.442 0.0212777ZM129.446 21.4919C129.312 22.3079 128.914 23.1784 128.276 24.0052C127.356 25.195 125.931 26.2838 124.068 26.9606C122.021 27.7056 119.841 27.7765 118.083 27.1571C117.319 26.8869 115.96 26.2347 115.474 24.9003C114.989 23.5659 115.608 22.1933 116.023 21.4947C116.97 19.8901 118.689 18.5421 120.733 17.7971C121.915 17.3659 123.066 17.1749 124.128 17.1749C125.427 17.1749 126.586 17.4614 127.49 17.939C128.396 18.4165 129.045 19.0878 129.326 19.8546C129.504 20.3458 129.542 20.9052 129.443 21.4892L129.446 21.4919Z" fill="white"/>
<path d="M87.4463 13.9739C86.7805 15.5294 85.7981 17.6797 84.4391 20.1603C81.6748 25.2059 80.294 27.7247 78.8995 27.6182C77.8435 27.5364 77.3305 26.1146 76.6701 24.1826C75.7068 21.3637 74.4269 17.4614 70.6829 15.06C70.2709 14.7953 69.0784 14.0667 67.3783 13.611C66.6606 13.42 65.9484 13.2999 65.2416 13.2481L71.4088 0.0212777H56.7385L37.661 40.9324H52.3341C53.0872 39.3196 53.8404 37.7014 54.5936 36.0859C54.5936 36.0804 54.599 36.075 54.599 36.0723C54.599 36.0695 54.599 36.0668 54.6045 36.0641C57.3852 30.2516 60.0431 26.0683 62.5346 26.1419C65.7846 26.2374 65.7191 33.7118 70.9285 37.9852C71.0213 38.0616 71.1196 38.138 71.2178 38.2144C71.3351 38.3072 71.4552 38.3945 71.578 38.4791C71.8018 38.6374 72.0392 38.7929 72.2821 38.9403C72.383 39.0031 72.4867 39.0631 72.5904 39.1231C77.4669 41.8738 82.9382 40.3702 83.3421 40.2638C85.0067 39.8272 86.4503 39.1395 87.7847 38.1516C88.0876 37.9279 88.3851 37.685 88.6798 37.4285C92.1072 34.4158 94.9179 29.1246 99.1395 20.3595C100.157 18.2446 101.162 16.1079 102.141 13.9767H87.4518L87.4463 13.9739Z" fill="white"/>
<path d="M169.124 40.916C166.441 40.916 163.803 40.4794 161.325 39.6061C155.733 37.6359 151.444 33.5262 149.555 28.3332C147.664 23.1402 148.311 17.2349 151.326 12.132C154.137 7.37556 158.735 3.6452 164.275 1.6313C169.814 -0.385326 175.733 -0.483562 180.943 1.35296C186.534 3.3232 190.824 7.43286 192.712 12.6259C194.603 17.8189 193.956 23.7242 190.941 28.8271C188.13 33.5835 183.532 37.3139 177.993 39.3278C175.089 40.3839 172.079 40.916 169.124 40.916ZM173.149 13.3463C171.727 13.3463 170.245 13.6083 168.821 14.1268C163.898 15.9196 160.795 20.3431 162.051 23.7869C162.768 25.7599 164.676 26.6904 165.748 27.067C168.03 27.872 170.835 27.7874 173.449 26.8351C178.372 25.0422 181.472 20.6187 180.219 17.1749C179.502 15.2019 177.594 14.2714 176.522 13.8948C175.485 13.5291 174.339 13.3463 173.152 13.3463H173.149Z" fill="white"/>
<path d="M39.3584 68.1336C38.4578 68.1336 37.6119 67.9617 36.8178 67.6206C36.0264 67.2795 35.336 66.7992 34.7466 66.1798C34.1571 65.5603 33.6987 64.8454 33.3685 64.0267C33.0383 63.2108 32.8746 62.3266 32.8746 61.3797C32.8746 60.4328 33.0383 59.5514 33.3685 58.7409C33.6987 57.9304 34.1571 57.2182 34.7466 56.6069C35.336 55.9957 36.0264 55.5181 36.8178 55.1743C37.6092 54.8332 38.4578 54.6612 39.3584 54.6612C40.499 54.6612 41.5333 54.8959 42.4638 55.3626C43.3943 55.8319 44.1584 56.4841 44.7615 57.3246C45.3618 58.1651 45.733 59.1366 45.8776 60.2418H42.9768C42.8813 59.6169 42.6603 59.0711 42.3192 58.6017C41.9781 58.1324 41.5578 57.7667 41.0584 57.502C40.5591 57.2373 40.0051 57.1063 39.3938 57.1063C38.829 57.1063 38.3214 57.2073 37.8711 57.4119C37.4209 57.6166 37.0306 57.9113 36.7004 58.2934C36.3703 58.6781 36.1192 59.1311 35.9445 59.6523C35.7699 60.1735 35.6826 60.7493 35.6826 61.3715C35.6826 61.9937 35.7699 62.5886 35.9445 63.1098C36.1192 63.631 36.3703 64.0867 36.7004 64.4688C37.0306 64.8535 37.4209 65.151 37.8711 65.3611C38.3214 65.5712 38.829 65.6749 39.3938 65.6749C40.0051 65.6749 40.5645 65.5385 41.0693 65.2711C41.5742 65.0009 41.9917 64.6298 42.3219 64.155C42.6521 63.6801 42.8704 63.1371 42.9795 62.5258H45.8803C45.7248 63.6419 45.3455 64.6216 44.7451 65.4621C44.1448 66.3026 43.3834 66.9575 42.4583 67.4241C41.5332 67.8935 40.5017 68.1254 39.3611 68.1254L39.3584 68.1336Z" fill="white"/>
<path d="M56.1681 67.8635H53.4311V54.9314H58.4931C60.125 54.9314 61.3939 55.2943 62.2944 56.0202C63.1949 56.7461 63.6452 57.7831 63.6452 59.1284C63.6452 59.9934 63.3887 60.7575 62.8784 61.4261C62.3681 62.0919 61.6504 62.5749 60.7253 62.8751L64.0573 67.8635H60.7963L57.8791 63.2899H56.1681V67.8635ZM56.1681 57.2018V61.0386H58.3649C59.1944 61.0386 59.8248 60.8803 60.256 60.561C60.6871 60.2418 60.9054 59.7669 60.9054 59.1284C60.9054 58.4898 60.6899 57.9959 60.256 57.6794C59.8248 57.3601 59.1944 57.2018 58.3649 57.2018H56.1681Z" fill="white"/>
<path d="M80.1112 65.4866V67.8635H71.4115V54.9314H79.9856V57.3082H74.1513V60.0289H79.4453V62.3894H74.1513V65.4866H80.1139H80.1112Z" fill="white"/>
<path d="M94.6341 54.9341H91.646L86.7832 67.8662H89.5366L90.5218 65.091H95.5592L96.5252 67.8662H99.4615L94.6341 54.9341ZM91.2968 62.9133L93.0678 57.925L94.8033 62.9133H91.2968Z" fill="white"/>
<path d="M111.338 67.8635H108.6V57.3983H104.529V54.9314H115.425V57.3983H111.338V67.8635Z" fill="white"/>
<path d="M125.448 67.8635H122.711V54.9314H125.448V67.8635Z" fill="white"/>
<path d="M144.87 54.9341L140.187 67.8662H137.196L132.549 54.9341H135.502L138.779 64.6789L142.13 54.9341H144.87Z" fill="white"/>
<path d="M160.689 65.4866V67.8635H151.989V54.9314H160.563V57.3082H154.729V60.0289H160.023V62.3894H154.729V65.4866H160.692H160.689Z" fill="white"/>
</svg>
