<svg width="203" height="40" viewBox="0 0 203 40" fill="none" xmlns="http://www.w3.org/2000/svg">
<g clip-path="url(#clip0_2052_63)">
<path d="M49.922 11.8476C49.4463 6.82888 44.8561 3.42084 40.2263 1.63948C34.8857 -0.416547 29.0155 -0.467212 23.5192 1.08748C21.8598 1.55681 20.2174 2.15149 18.6883 2.92483C11.5552 6.53821 7.05281 11.9036 5.93429 18.093C4.32022 18.117 2.66084 18.1144 0.958984 18.0797V31.0932C3.55283 31.1385 6.05039 31.1279 8.46301 31.0559C8.78582 31.5492 9.14261 32.0452 9.53905 32.5306C10.4197 33.6159 11.9602 35.2053 14.2963 36.6266C18.5722 39.2267 23.4512 40.0027 27.829 40C31.3262 40 34.5005 39.5067 36.7886 39.048C37.0887 38.4453 39.7194 33.1252 40.028 32.5039C40.2716 32.0106 42.6983 27.1118 42.9475 26.6078C40.7558 27.1812 38.1563 27.7118 35.2056 28.0292C32.5806 28.3118 30.1907 28.3732 28.1122 28.3172C33.8464 26.8985 38.1648 25.3145 40.3735 24.1971C42.149 23.2984 43.5903 22.2931 43.5903 22.2931C44.4002 21.7278 45.2271 21.0771 46.0596 20.3224C47.2432 19.2451 48.2825 18.005 48.9904 16.597C49.7946 14.9917 50.0693 13.3836 49.9249 11.8476H49.922ZM21.7947 16.6823C21.5568 16.1837 23.7033 14.8477 24.1733 14.5543C25.3711 13.8076 27.8375 12.5383 30.9921 12.6663C31.6972 12.6956 32.9969 12.749 33.079 13.1383C33.2206 13.797 29.7829 14.9463 28.5285 15.365C28.1858 15.4797 22.1713 17.4717 21.7947 16.685V16.6823Z" fill="#D9FF63"/>
<path d="M93.0574 0.020793L81.7589 18.445C81.0934 17.181 80.2213 15.6957 78.6468 14.2023C76.7128 12.3703 74.64 11.3809 73.2411 10.8769C73.1533 10.8449 73.0627 10.8129 72.9749 10.7836L79.5757 0.020793H93.0602H93.0574Z" fill="#D9FF63"/>
<path d="M101.418 11.5684C105.17 10.9454 107.732 7.88066 107.141 4.72313C106.55 1.5656 103.029 -0.48905 99.2775 0.133946C95.5257 0.756941 92.9635 3.82166 93.5547 6.97919C94.1459 10.1367 97.6666 12.1914 101.418 11.5684Z" fill="#D9FF63"/>
<path d="M145.656 0.020793L142.009 7.39689C140.528 6.37821 138.857 5.54887 137.042 4.94619C132.183 3.33284 126.673 3.41817 121.525 5.18086C116.374 6.94622 112.095 10.2156 109.476 14.3917C106.638 18.9144 106.035 24.1544 107.819 28.7732C109.603 33.3919 113.644 37.04 118.902 38.7893C121.137 39.5306 123.507 39.912 125.917 39.9387C126.004 39.9387 126.089 39.9387 126.177 39.9387C128.927 39.9387 131.722 39.4747 134.417 38.552C137.83 37.3813 140.976 35.5039 143.487 33.0292C146.766 29.7972 148.279 25.4931 150.241 21.5224C151.603 18.765 152.968 16.0077 154.33 13.2476C156.51 8.83691 158.691 4.42618 160.871 0.0154585H145.651L145.656 0.020793ZM135.284 21.0024C135.145 21.7997 134.732 22.6504 134.069 23.4584C133.115 24.6211 131.637 25.6851 129.703 26.3465C127.579 27.0745 125.316 27.1438 123.493 26.5385C122.7 26.2745 121.29 25.6371 120.785 24.3331C120.281 23.0291 120.924 21.6877 121.355 21.0051C122.337 19.4371 124.121 18.1197 126.242 17.3917C127.468 16.9704 128.663 16.7837 129.765 16.7837C131.113 16.7837 132.316 17.0637 133.253 17.5304C134.194 17.997 134.868 18.653 135.159 19.4024C135.343 19.8824 135.383 20.4291 135.281 20.9997L135.284 21.0024Z" fill="#D9FF63"/>
<path d="M91.701 13.6556C91.0101 15.1757 89.9907 17.277 88.5805 19.7011C85.712 24.6318 84.2791 27.0932 82.8321 26.9892C81.7362 26.9092 81.2039 25.5198 80.5186 23.6318C79.519 20.8771 78.191 17.0637 74.3059 14.717C73.8783 14.4583 72.6408 13.7463 70.8766 13.301C70.1319 13.1143 69.3928 12.997 68.6594 12.9463L75.0591 0.020793H59.8358L40.0394 40H55.2654C56.047 38.424 56.8285 36.8426 57.6101 35.2639C57.6101 35.2586 57.6158 35.2533 57.6158 35.2506C57.6158 35.2479 57.6158 35.2453 57.6214 35.2426C60.5069 29.5625 63.265 25.4745 65.8504 25.5465C69.2229 25.6398 69.155 32.9439 74.5607 37.12C74.657 37.1946 74.7589 37.2693 74.8609 37.344C74.9826 37.4346 75.1072 37.52 75.2346 37.6026C75.4668 37.7573 75.7132 37.9093 75.9652 38.0533C76.07 38.1146 76.1776 38.1733 76.2852 38.232C81.3455 40.92 87.023 39.4507 87.4421 39.3466C89.1695 38.92 90.6674 38.248 92.0521 37.2826C92.3665 37.064 92.6751 36.8266 92.9809 36.5759C96.5376 33.6319 99.4542 28.4612 103.835 19.8957C104.891 17.829 105.933 15.741 106.95 13.6583H91.7067L91.701 13.6556Z" fill="#D9FF63"/>
<path d="M176.457 39.984C173.673 39.984 170.935 39.5573 168.364 38.704C162.562 36.7786 158.11 32.7626 156.151 27.6878C154.188 22.6131 154.859 16.8424 157.988 11.8556C160.905 7.20756 165.677 3.56217 171.425 1.59414C177.173 -0.376549 183.315 -0.472547 188.721 1.32214C194.523 3.2475 198.975 7.26356 200.934 12.3383C202.896 17.413 202.225 23.1838 199.096 28.1705C196.18 32.8186 191.408 36.4639 185.66 38.432C182.647 39.464 179.524 39.984 176.457 39.984ZM180.634 13.0423C179.158 13.0423 177.621 13.2983 176.143 13.805C171.034 15.557 167.814 19.8797 169.117 23.2451C169.862 25.1731 171.841 26.0825 172.954 26.4505C175.321 27.2372 178.232 27.1545 180.945 26.2238C186.053 24.4718 189.27 20.1491 187.971 16.7837C187.226 14.8557 185.246 13.9463 184.134 13.5783C183.058 13.221 181.868 13.0423 180.636 13.0423H180.634Z" fill="#D9FF63"/>
</g>
<defs>
<clipPath id="clip0_2052_63">
<rect width="201.081" height="40" fill="white" transform="translate(0.958984)"/>
</clipPath>
</defs>
</svg>
