<svg width="119" height="26" viewBox="0 0 119 26" fill="none" xmlns="http://www.w3.org/2000/svg">
<path d="M28.7584 7.90483C28.479 4.76816 25.783 2.63816 23.0636 1.52483C19.9268 0.239829 16.479 0.208164 13.2507 1.17983C12.2761 1.47316 11.3114 1.84483 10.4133 2.32816C6.2237 4.5865 3.57921 7.93983 2.92224 11.8082C1.97422 11.8232 0.999584 11.8215 0 11.7998V19.9332C1.52349 19.9615 2.99044 19.9548 4.40748 19.9098C4.59709 20.2182 4.80665 20.5282 5.0395 20.8315C5.55676 21.5098 6.46154 22.5032 7.83368 23.3915C10.3451 25.0165 13.2108 25.5015 15.7821 25.4998C17.8362 25.4998 19.7006 25.1915 21.0445 24.9048C21.2208 24.5282 22.7659 21.2032 22.9472 20.8148C23.0902 20.5065 24.5156 17.4448 24.662 17.1298C23.3746 17.4882 21.8478 17.8198 20.1148 18.0182C18.573 18.1948 17.1692 18.2332 15.9484 18.1982C19.3164 17.3115 21.8528 16.3215 23.1501 15.6232C24.1929 15.0615 25.0395 14.4332 25.0395 14.4332C25.5152 14.0798 26.0008 13.6732 26.4898 13.2015C27.185 12.5282 27.7954 11.7532 28.2112 10.8732C28.6836 9.86983 28.8449 8.86483 28.7601 7.90483H28.7584ZM12.2378 10.9265C12.0981 10.6148 13.3588 9.77983 13.6349 9.5965C14.3385 9.12983 15.7871 8.3365 17.6399 8.4165C18.0541 8.43483 18.8175 8.46816 18.8657 8.7115C18.9489 9.12316 16.9297 9.8415 16.1929 10.1032C15.9917 10.1748 12.459 11.4198 12.2378 10.9282V10.9265Z" fill="#5150E3"/>
<path d="M54.094 0.513163L47.4578 12.0282C47.0669 11.2382 46.5547 10.3098 45.6299 9.37649C44.494 8.23149 43.2765 7.61316 42.4549 7.29816C42.4033 7.27816 42.3501 7.25816 42.2985 7.23983L46.1755 0.513163H54.0956H54.094Z" fill="#5150E3"/>
<path d="M59.0048 7.7303C61.2084 7.34094 62.7133 5.42551 62.3661 3.45208C62.0188 1.47865 59.9509 0.194516 57.7473 0.583883C55.5437 0.97325 54.0388 2.88868 54.3861 4.86211C54.7333 6.83554 56.8012 8.11967 59.0048 7.7303Z" fill="#5150E3"/>
<path d="M84.9879 0.513163L82.8457 5.12316C81.9759 4.4865 80.9946 3.96816 79.9285 3.5915C77.0744 2.58316 73.8378 2.63649 70.8141 3.73816C67.7888 4.84149 65.2757 6.88483 63.7372 9.49483C62.0707 12.3215 61.7164 15.5965 62.7642 18.4832C63.8121 21.3698 66.1855 23.6498 69.274 24.7432C70.5863 25.2065 71.9784 25.4448 73.3938 25.4615C73.4453 25.4615 73.4952 25.4615 73.5468 25.4615C75.1618 25.4615 76.8033 25.1715 78.3867 24.5948C80.3909 23.8632 82.2387 22.6898 83.7139 21.1432C85.6399 19.1232 86.5281 16.4332 87.6807 13.9515C88.4807 12.2282 89.2823 10.5048 90.0823 8.77983C91.363 6.02316 92.6437 3.2665 93.9243 0.509829H84.9846L84.9879 0.513163ZM78.8956 13.6265C78.8141 14.1248 78.5713 14.6565 78.1821 15.1615C77.6216 15.8882 76.7534 16.5532 75.6175 16.9665C74.3701 17.4215 73.0412 17.4648 71.9701 17.0865C71.5044 16.9215 70.6761 16.5232 70.3801 15.7082C70.084 14.8932 70.4615 14.0548 70.7143 13.6282C71.2915 12.6482 72.3393 11.8248 73.585 11.3698C74.3052 11.1065 75.0071 10.9898 75.6541 10.9898C76.4457 10.9898 77.1526 11.1648 77.7031 11.4565C78.2553 11.7482 78.6511 12.1582 78.8225 12.6265C78.9306 12.9265 78.9539 13.2682 78.894 13.6248L78.8956 13.6265Z" fill="#5150E3"/>
<path d="M53.2973 9.03483C52.8915 9.98483 52.2927 11.2982 51.4645 12.8132C49.7796 15.8948 48.938 17.4332 48.0882 17.3682C47.4445 17.3182 47.1318 16.4498 46.7293 15.2698C46.1422 13.5482 45.3622 11.1648 43.0803 9.69816C42.8291 9.5365 42.1023 9.0915 41.0661 8.81316C40.6287 8.6965 40.1946 8.62316 39.7638 8.5915L43.5227 0.513163H34.5813L22.9538 25.4998H31.8969C32.3559 24.5148 32.815 23.5265 33.274 22.5398C33.274 22.5365 33.2773 22.5332 33.2773 22.5315C33.2773 22.5298 33.2773 22.5282 33.2807 22.5265C34.9755 18.9765 36.5954 16.4215 38.1139 16.4665C40.0948 16.5248 40.0549 21.0898 43.2299 23.6998C43.2865 23.7465 43.3464 23.7932 43.4062 23.8398C43.4778 23.8965 43.5509 23.9498 43.6258 24.0015C43.7622 24.0982 43.9069 24.1932 44.0549 24.2832C44.1164 24.3215 44.1796 24.3582 44.2428 24.3948C47.215 26.0748 50.5497 25.1565 50.7958 25.0915C51.8104 24.8248 52.6902 24.4048 53.5035 23.8015C53.6882 23.6648 53.8694 23.5165 54.0491 23.3598C56.138 21.5198 57.8511 18.2882 60.4241 12.9348C61.0445 11.6432 61.6566 10.3382 62.2536 9.0365H53.3006L53.2973 9.03483Z" fill="#5150E3"/>
<path d="M103.079 25.4898C101.444 25.4898 99.8354 25.2232 98.3252 24.6898C94.9173 23.4865 92.3027 20.9765 91.1518 17.8048C89.9992 14.6332 90.3934 11.0265 92.2312 7.90983C93.9443 5.00483 96.7468 2.72649 100.123 1.49649C103.499 0.264828 107.107 0.20483 110.282 1.3265C113.69 2.52983 116.304 5.03983 117.455 8.2115C118.608 11.3832 118.214 14.9898 116.376 18.1065C114.663 21.0115 111.86 23.2898 108.484 24.5198C106.714 25.1648 104.88 25.4898 103.079 25.4898ZM105.532 8.6515C104.665 8.6515 103.762 8.8115 102.894 9.12816C99.8936 10.2232 98.0025 12.9248 98.7676 15.0282C99.205 16.2332 100.368 16.8015 101.021 17.0315C102.412 17.5232 104.121 17.4715 105.715 16.8898C108.715 15.7948 110.605 13.0932 109.841 10.9898C109.404 9.78483 108.241 9.21649 107.588 8.9865C106.956 8.76316 106.257 8.6515 105.533 8.6515H105.532Z" fill="#5150E3"/>
</svg>
