<svg width="586" height="461" viewBox="0 0 586 461" fill="none" xmlns="http://www.w3.org/2000/svg">
<path d="M553.041 326.83L552.98 327.352C552.98 327.352 552.964 327.46 552.964 327.506C552.949 327.552 552.949 327.598 552.949 327.613H552.934C552.934 327.613 552.98 327.383 553.056 326.845L553.041 326.83Z" fill="white"/>
<path d="M257.086 384.246C256.932 384.307 256.702 384.369 256.456 384.445C256.302 384.445 256.18 384.461 256.041 384.507C256.563 384.384 256.886 384.292 257.07 384.246H257.086Z" fill="white"/>
<path d="M311.328 314.419C311.328 314.419 311.45 314.481 311.527 314.542C311.696 314.65 311.865 314.772 312.019 314.911C312.065 314.957 312.111 315.018 312.172 315.064C312.387 315.341 312.172 315.372 311.328 314.419Z" fill="white"/>
<path d="M314.261 358.595C314.261 358.595 314.2 358.764 314.139 358.917C314.031 359.117 313.908 359.332 313.755 359.562C314.077 358.917 314.231 358.641 314.277 358.595H314.261Z" fill="white"/>
<path d="M307.948 312.438C305.967 311.885 306.965 312.023 307.748 312.33H307.763C307.763 312.33 307.871 312.422 307.932 312.438H307.948Z" fill="white"/>
<path d="M108.095 282.67C108.095 282.67 108.217 282.609 108.294 282.563C108.356 282.547 108.417 282.516 108.463 282.47C108.632 282.409 108.801 282.317 108.985 282.271C109.031 282.255 109.077 282.255 109.139 282.225C109.446 282.225 109.2 282.501 108.11 282.655L108.095 282.67Z" fill="white"/>
<path d="M299.038 310.026H298.992C298.623 310.072 298.193 310.026 297.733 309.949C297.594 310.057 298.04 310.226 299.038 310.026Z" fill="white"/>
<path d="M300.651 260.705C299.376 261.289 299.376 260.982 300.006 260.813C300.206 260.813 300.39 260.767 300.559 260.721C300.574 260.705 300.62 260.705 300.651 260.705Z" fill="white"/>
<path d="M33.0227 279.598C32.7923 278.738 32.5465 277.878 32.3315 277.018C32.101 276.05 31.886 275.082 31.7016 274.115C31.6402 273.731 31.5787 273.362 31.5019 272.993C31.5019 272.993 31.5019 272.947 31.4866 272.886C31.4866 272.84 31.4866 272.794 31.4712 272.732C31.4712 272.671 31.4559 272.609 31.4559 272.532C31.4405 272.44 31.4405 272.41 31.4098 272.302C30.995 268.186 31.1486 264.192 31.4251 260.06V259.968C31.5173 259.538 31.5788 259.108 31.6402 258.693C31.8092 257.71 32.0242 256.727 32.2393 255.759C32.7309 253.686 33.33 251.643 34.052 249.646C34.2209 249.155 34.4206 248.694 34.5896 248.218C34.5435 248.31 34.4974 248.417 34.4667 248.494C34.4821 248.433 34.5282 248.341 34.5742 248.218C34.5896 248.172 34.6357 248.11 34.6664 248.064C35.0505 247.188 35.4345 246.313 35.8646 245.484C36.8478 243.564 37.9384 241.72 39.1213 239.908C39.5514 239.278 39.9969 238.664 40.4424 238.034C40.4577 238.034 41.364 236.867 41.6098 236.575C42.9002 235.039 44.2827 233.61 45.7421 232.228C46.4026 231.583 47.0939 230.953 47.8159 230.354C48.077 230.124 49.0141 229.386 49.1984 229.217C50.6424 228.157 52.1478 227.144 53.684 226.222C55.2816 225.27 56.9099 224.41 58.5689 223.611C58.9376 223.442 60.1205 222.95 60.228 222.904C61.0268 222.597 61.8256 222.305 62.6398 222.029C64.6368 221.368 66.6798 220.8 68.7536 220.37C69.5985 220.17 70.428 220.047 71.2729 219.894H71.2883C71.6263 219.878 73.0549 219.663 73.4389 219.633C75.6971 219.433 77.9859 219.402 80.2594 219.479C81.0582 219.494 81.8263 219.571 82.6251 219.633C82.026 222.689 81.5498 225.792 81.2426 228.91C72.1178 233.518 63.5461 239.263 55.9729 246.159C45.6806 255.483 37.9231 266.972 33.0381 279.598H33.0227Z" fill="white"/>
<path d="M137.742 146.826C140.062 143.324 142.397 139.807 144.747 136.305C146.299 135.997 147.819 135.706 149.371 135.352C166.683 131.604 183.566 125.798 200.187 119.747C203.766 118.441 207.33 117.105 210.909 115.738C240.941 122.02 272.34 120.76 301.665 111.56C306.181 110.131 310.636 108.503 315.03 106.737C342.066 127.58 374.525 140.559 408.904 141.972C418.536 142.387 428.167 141.757 437.691 140.375C443.114 152.325 449.658 163.599 457.707 174.06C463.407 181.463 469.705 188.421 476.187 195.164C481.963 201.17 488.031 206.976 494.913 211.692C498.846 214.38 503.485 216.684 508.262 217.59C508.308 217.912 508.354 218.235 508.37 218.542C509.03 224.886 509.353 231.26 509.338 237.635C508.57 236.989 507.786 236.329 506.987 235.699C498.769 229.048 490.274 222.674 481.533 216.684C465.818 205.947 449.243 196.424 432.084 188.175C415.448 180.188 398.289 173.338 380.777 167.593C379.533 166.84 378.135 166.395 376.691 166.318C360.392 161.126 343.786 156.841 326.996 153.508C292.694 146.657 257.67 143.324 222.707 142.802C194.349 142.387 165.946 143.862 137.742 146.78V146.826Z" fill="white"/>
<path d="M526.742 221.138C534.515 219.832 542.273 218.511 550.03 217.175C545.514 230.108 540.982 243.026 536.466 255.974C536.128 255.759 535.775 255.59 535.437 255.375C534.515 254.822 533.578 254.285 532.641 253.763C532.088 253.44 531.52 253.117 530.936 252.81C529.584 252.104 528.202 251.412 526.804 250.767C527.556 240.922 527.556 231.03 526.742 221.138Z" fill="white"/>
<path d="M320.944 334.956C320.882 334.141 320.821 333.343 320.744 332.529C320.729 332.375 320.729 332.268 320.698 332.16C320.683 332.037 320.637 331.899 320.606 331.715C320.237 330.148 319.961 328.55 319.485 326.984C319.254 326.231 319.008 325.448 318.732 324.695C318.67 324.526 318.179 323.405 318.102 323.251C317.503 322.022 316.873 320.824 316.136 319.672C315.813 319.15 315.475 318.659 315.122 318.167C314.707 317.691 314.308 317.199 313.878 316.723C313.325 316.14 312.741 315.602 312.126 315.064C312.065 315.018 312.019 314.957 311.973 314.911C311.911 314.819 311.773 314.742 311.635 314.634C311.589 314.588 311.527 314.573 311.481 314.542C311.328 314.419 311.174 314.281 311.051 314.158C311.143 314.25 311.205 314.327 311.281 314.419C310.191 313.713 309.085 313.021 307.902 312.438C307.963 312.438 308.009 312.453 308.071 312.484C307.963 312.438 307.84 312.392 307.733 312.361H307.718C307.518 312.253 307.334 312.161 307.165 312.1C306.396 311.823 305.613 311.562 304.845 311.332C303.34 310.886 301.803 310.533 300.252 310.257C299.837 310.164 299.438 310.103 299.008 310.042C299.023 310.026 299.054 310.026 299.069 310.026H298.961L298.516 309.965C298.04 309.873 297.779 309.919 297.717 309.965C297.195 309.873 296.688 309.765 296.289 309.734C294.461 309.581 292.633 309.473 290.805 309.396C286.319 309.227 281.833 309.243 277.348 309.304C266.211 309.427 255.089 309.673 243.983 309.258C229.128 308.721 214.335 307.123 199.711 304.451C185.701 301.87 171.937 298.214 158.419 293.729C148.664 290.519 139.079 286.771 129.217 283.853C127.081 283.223 124.946 282.655 122.78 282.148C121.92 281.979 121.075 281.779 120.215 281.626L119.37 281.503C117.603 281.349 115.883 281.196 114.116 281.272C113.579 281.288 113.041 281.334 112.503 281.38C112.227 281.441 111.95 281.487 111.689 281.549C110.814 281.748 109.938 281.979 109.108 282.255C108.955 282.271 108.74 282.317 108.448 282.486C108.402 282.532 108.34 282.547 108.279 282.578C108.125 282.639 107.956 282.701 107.803 282.732C107.91 282.732 108.002 282.716 108.079 282.685C106.789 283.377 105.56 284.114 104.331 284.928L104.285 284.974C103.947 285.251 103.624 285.527 103.302 285.819C102.764 286.31 102.226 286.833 101.704 287.355C100.967 288.107 100.306 288.891 99.6303 289.674C99.3999 289.981 98.9391 290.58 98.8315 290.734C98.4014 291.364 97.9866 291.978 97.6026 292.623C96.8038 293.944 96.0664 295.296 95.3905 296.663C95.1755 297.108 94.9604 297.569 94.7607 298.015C94.4842 298.752 94.2077 299.474 93.9466 300.211C93.5164 301.44 93.1478 302.669 92.8098 303.913C92.395 305.418 92.0724 306.924 91.7959 308.46C91.7499 308.659 91.5963 309.596 91.5655 309.903C91.5041 310.395 91.458 310.871 91.4119 311.363C91.1508 314.358 91.2122 317.276 91.4119 320.256C91.4273 320.517 91.4273 320.686 91.4273 320.84C91.4426 320.963 91.4887 321.116 91.5194 321.316C91.6884 322.13 91.8267 322.975 92.011 323.789C92.3797 325.386 92.8098 326.953 93.3167 328.504C93.624 329.411 93.9619 330.317 94.3306 331.192C94.346 331.254 94.3767 331.315 94.4381 331.407C95.0833 332.744 95.7285 334.08 96.4659 335.37C97.6948 337.521 99.0773 339.548 100.537 341.545C100.69 341.699 101.95 343.311 102.257 343.649C102.964 344.494 103.67 345.293 104.438 346.076C105.621 347.351 106.85 348.595 108.095 349.824C109.431 351.13 110.814 352.404 112.258 353.618C112.964 354.217 113.717 354.801 114.439 355.4C114.608 355.553 114.808 355.676 114.976 355.814C121.736 360.837 129.171 364.938 136.805 368.425C137.973 368.963 139.309 369.377 140.4 370.022C137.988 368.609 141.168 370.33 141.936 370.621C143.918 371.42 145.899 372.157 147.896 372.879C152.397 374.492 156.96 375.936 161.568 377.226C171.154 379.914 180.908 381.957 190.74 383.462C191.584 383.585 192.414 383.724 193.259 383.831C193.351 383.846 193.474 383.877 193.643 383.892C194.595 384.046 195.532 384.123 196.485 384.261C199.004 384.568 201.539 384.814 204.058 385.06C209.112 385.536 214.181 385.859 219.235 386.028C228.928 386.35 238.637 386.15 248.299 385.321C250.865 385.091 253.445 384.829 256.011 384.507H256.026C256.149 384.461 256.287 384.445 256.441 384.445C256.856 384.353 257.286 384.338 257.685 384.276C258.638 384.154 259.605 384 260.542 383.831C265.028 383.124 269.452 382.218 273.83 381.112C277.993 380.083 282.095 378.87 286.119 377.426C287.256 377.042 288.377 376.612 289.483 376.182C289.914 376.013 290.328 375.844 290.728 375.69C292.325 374.953 293.908 374.246 295.459 373.478C298.793 371.804 302.003 369.9 305.06 367.749C305.475 367.473 305.859 367.165 306.258 366.889C306.75 366.474 307.241 366.075 307.748 365.66C309.039 364.539 310.283 363.356 311.466 362.127C312.126 361.421 312.802 360.684 313.432 359.946C313.524 359.839 313.601 359.716 313.693 359.578C313.847 359.347 313.97 359.132 314.077 358.932C314.784 357.857 315.644 356.844 316.289 355.768C316.719 355.016 317.15 354.232 317.534 353.449C317.703 353.142 318.302 351.667 318.348 351.575C319.331 348.795 320.068 345.999 320.606 343.096C320.621 342.989 320.621 342.943 320.652 342.881C320.698 342.559 320.713 342.236 320.759 341.898C320.806 341.238 320.867 340.562 320.882 339.871C320.975 338.258 320.975 336.614 320.882 334.986L320.944 334.956ZM292.417 351.053C280.574 353.526 268.561 355.246 256.502 356.137C255.842 356.198 255.15 356.229 254.475 356.26V365.445C254.475 370.529 250.296 374.292 245.396 374.523C240.48 374.738 236.317 370.176 236.317 365.445V356.797C204.58 356.598 172.843 350.469 143.226 339.164C138.449 337.336 135.684 333.174 136.882 327.997C137.896 323.543 143.595 319.964 148.05 321.669C155.915 324.664 163.918 327.306 172.014 329.564C180.632 331.96 189.342 333.911 198.159 335.416C200.663 335.831 203.152 336.215 205.671 336.584H205.686C206.239 336.645 206.777 336.707 207.33 336.799C208.574 336.952 209.803 337.075 211.032 337.213C216.132 337.766 221.263 338.166 226.378 338.396C229.696 338.565 233.014 338.627 236.333 338.657V330.04C236.333 324.956 240.496 321.193 245.411 320.978C250.327 320.763 254.49 325.309 254.49 330.04V338.089C256.164 337.981 257.854 337.889 259.528 337.751C265.043 337.275 269.483 336.737 273.738 336.077C278.392 335.37 283.001 334.51 287.579 333.542C292.571 332.513 297.164 334.986 298.746 339.886C300.19 344.34 297.072 350.07 292.417 351.053ZM300.405 260.721C300.252 260.736 300.098 260.782 299.991 260.813C300.19 260.813 300.375 260.767 300.544 260.721H300.39H300.405ZM320.944 334.956C320.882 334.141 320.821 333.343 320.744 332.529C320.729 332.375 320.729 332.268 320.698 332.16C320.683 332.037 320.637 331.899 320.606 331.715C320.237 330.148 319.961 328.55 319.485 326.984C319.254 326.231 319.008 325.448 318.732 324.695C318.67 324.526 318.179 323.405 318.102 323.251C317.503 322.022 316.873 320.824 316.136 319.672C315.813 319.15 315.475 318.659 315.122 318.167C314.707 317.691 314.308 317.199 313.878 316.723C313.325 316.14 312.741 315.602 312.126 315.064C312.065 315.018 312.019 314.957 311.973 314.911C311.911 314.819 311.773 314.742 311.635 314.634C311.589 314.588 311.527 314.573 311.481 314.542C311.328 314.419 311.174 314.281 311.051 314.158C311.143 314.25 311.205 314.327 311.281 314.419C310.191 313.713 309.085 313.021 307.902 312.438C307.963 312.438 308.009 312.453 308.071 312.484C307.963 312.438 307.84 312.392 307.733 312.361H307.718C307.518 312.253 307.334 312.161 307.165 312.1C306.396 311.823 305.613 311.562 304.845 311.332C303.34 310.886 301.803 310.533 300.252 310.257C299.837 310.164 299.438 310.103 299.008 310.042C299.023 310.026 299.054 310.026 299.069 310.026H298.961L298.516 309.965C298.04 309.873 297.779 309.919 297.717 309.965C297.195 309.873 296.688 309.765 296.289 309.734C294.461 309.581 292.633 309.473 290.805 309.396C286.319 309.227 281.833 309.243 277.348 309.304C266.211 309.427 255.089 309.673 243.983 309.258C229.128 308.721 214.335 307.123 199.711 304.451C185.701 301.87 171.937 298.214 158.419 293.729C148.664 290.519 139.079 286.771 129.217 283.853C127.081 283.223 124.946 282.655 122.78 282.148C121.92 281.979 121.075 281.779 120.215 281.626L119.37 281.503C117.603 281.349 115.883 281.196 114.116 281.272C113.579 281.288 113.041 281.334 112.503 281.38C112.227 281.441 111.95 281.487 111.689 281.549C110.814 281.748 109.938 281.979 109.108 282.255C108.955 282.271 108.74 282.317 108.448 282.486C108.402 282.532 108.34 282.547 108.279 282.578C108.125 282.639 107.956 282.701 107.803 282.732C107.91 282.732 108.002 282.716 108.079 282.685C106.789 283.377 105.56 284.114 104.331 284.928L104.285 284.974C103.947 285.251 103.624 285.527 103.302 285.819C102.764 286.31 102.226 286.833 101.704 287.355C100.967 288.107 100.306 288.891 99.6303 289.674C99.3999 289.981 98.9391 290.58 98.8315 290.734C98.4014 291.364 97.9866 291.978 97.6026 292.623C96.8038 293.944 96.0664 295.296 95.3905 296.663C95.1755 297.108 94.9604 297.569 94.7607 298.015C94.4842 298.752 94.2077 299.474 93.9466 300.211C93.5164 301.44 93.1478 302.669 92.8098 303.913C92.395 305.418 92.0724 306.924 91.7959 308.46C91.7499 308.659 91.5963 309.596 91.5655 309.903C91.5041 310.395 91.458 310.871 91.4119 311.363C91.1508 314.358 91.2122 317.276 91.4119 320.256C91.4273 320.517 91.4273 320.686 91.4273 320.84C91.4426 320.963 91.4887 321.116 91.5194 321.316C91.6884 322.13 91.8267 322.975 92.011 323.789C92.3797 325.386 92.8098 326.953 93.3167 328.504C93.624 329.411 93.9619 330.317 94.3306 331.192C94.346 331.254 94.3767 331.315 94.4381 331.407C95.0833 332.744 95.7285 334.08 96.4659 335.37C97.6948 337.521 99.0773 339.548 100.537 341.545C100.69 341.699 101.95 343.311 102.257 343.649C102.964 344.494 103.67 345.293 104.438 346.076C105.621 347.351 106.85 348.595 108.095 349.824C109.431 351.13 110.814 352.404 112.258 353.618C112.964 354.217 113.717 354.801 114.439 355.4C114.608 355.553 114.808 355.676 114.976 355.814C121.736 360.837 129.171 364.938 136.805 368.425C137.973 368.963 139.309 369.377 140.4 370.022C137.988 368.609 141.168 370.33 141.936 370.621C143.918 371.42 145.899 372.157 147.896 372.879C152.397 374.492 156.96 375.936 161.568 377.226C171.154 379.914 180.908 381.957 190.74 383.462C191.584 383.585 192.414 383.724 193.259 383.831C193.351 383.846 193.474 383.877 193.643 383.892C194.595 384.046 195.532 384.123 196.485 384.261C199.004 384.568 201.539 384.814 204.058 385.06C209.112 385.536 214.181 385.859 219.235 386.028C228.928 386.35 238.637 386.15 248.299 385.321C250.865 385.091 253.445 384.829 256.011 384.507H256.026C256.149 384.461 256.287 384.445 256.441 384.445C256.856 384.353 257.286 384.338 257.685 384.276C258.638 384.154 259.605 384 260.542 383.831C265.028 383.124 269.452 382.218 273.83 381.112C277.993 380.083 282.095 378.87 286.119 377.426C287.256 377.042 288.377 376.612 289.483 376.182C289.914 376.013 290.328 375.844 290.728 375.69C292.325 374.953 293.908 374.246 295.459 373.478C298.793 371.804 302.003 369.9 305.06 367.749C305.475 367.473 305.859 367.165 306.258 366.889C306.75 366.474 307.241 366.075 307.748 365.66C309.039 364.539 310.283 363.356 311.466 362.127C312.126 361.421 312.802 360.684 313.432 359.946C313.524 359.839 313.601 359.716 313.693 359.578C313.847 359.347 313.97 359.132 314.077 358.932C314.784 357.857 315.644 356.844 316.289 355.768C316.719 355.016 317.15 354.232 317.534 353.449C317.703 353.142 318.302 351.667 318.348 351.575C319.331 348.795 320.068 345.999 320.606 343.096C320.621 342.989 320.621 342.943 320.652 342.881C320.698 342.559 320.713 342.236 320.759 341.898C320.806 341.238 320.867 340.562 320.882 339.871C320.975 338.258 320.975 336.614 320.882 334.986L320.944 334.956ZM292.417 351.053C280.574 353.526 268.561 355.246 256.502 356.137C255.842 356.198 255.15 356.229 254.475 356.26V365.445C254.475 370.529 250.296 374.292 245.396 374.523C240.48 374.738 236.317 370.176 236.317 365.445V356.797C204.58 356.598 172.843 350.469 143.226 339.164C138.449 337.336 135.684 333.174 136.882 327.997C137.896 323.543 143.595 319.964 148.05 321.669C155.915 324.664 163.918 327.306 172.014 329.564C180.632 331.96 189.342 333.911 198.159 335.416C200.663 335.831 203.152 336.215 205.671 336.584H205.686C206.239 336.645 206.777 336.707 207.33 336.799C208.574 336.952 209.803 337.075 211.032 337.213C216.132 337.766 221.263 338.166 226.378 338.396C229.696 338.565 233.014 338.627 236.333 338.657V330.04C236.333 324.956 240.496 321.193 245.411 320.978C250.327 320.763 254.49 325.309 254.49 330.04V338.089C256.164 337.981 257.854 337.889 259.528 337.751C265.043 337.275 269.483 336.737 273.738 336.077C278.392 335.37 283.001 334.51 287.579 333.542C292.571 332.513 297.164 334.986 298.746 339.886C300.19 344.34 297.072 350.07 292.417 351.053ZM553.195 310.518C553.179 310.318 553.026 309.458 552.995 309.274C552.841 308.367 552.688 307.507 552.519 306.632C552.181 304.988 551.766 303.36 551.29 301.747C550.752 299.935 550.046 298.214 549.431 296.433C549.308 296.11 549.155 295.787 549.001 295.465C548.586 294.605 548.187 293.76 547.726 292.931C546.651 290.888 545.468 288.922 544.147 287.032C543.84 286.602 543.548 286.172 543.24 285.757C543.148 285.65 542.856 285.266 542.688 285.02C542.519 284.82 542.35 284.605 542.273 284.544C541.95 284.16 541.628 283.776 541.305 283.377C538.909 280.658 536.282 278.216 533.532 275.912C533.209 275.651 532.902 275.42 532.841 275.359C532.349 274.99 531.858 274.621 531.351 274.284C531.873 280.765 531.074 287.355 527.925 292.946C525.099 297.938 520.536 300.933 515.344 302.423C514.008 305.925 512.61 309.443 511.058 312.883C519.092 313.528 526.158 316.692 532.503 321.623C536.512 324.741 535.498 331.208 532.503 334.449C529.016 338.258 523.762 337.413 520.029 334.725C521.489 335.892 518.693 333.911 518.14 333.588C517.602 333.266 517.049 332.989 516.496 332.682C516.296 332.575 516.189 332.513 516.066 332.452C516.066 332.452 516.045 332.447 516.005 332.436C514.514 331.914 513.055 331.469 511.504 331.131C511.196 331.069 511.058 331.039 511.058 331.023C510.904 331.023 510.751 331.008 510.613 330.977C509.875 330.931 509.123 330.885 508.37 330.885C507.663 330.885 506.957 330.931 506.235 330.977H505.789C505.697 330.993 505.589 331.023 505.482 331.039C504.345 331.254 503.193 331.515 502.056 331.853C501.242 332.083 500.443 332.406 499.629 332.667C499.537 332.713 499.46 332.774 499.322 332.82C495.528 334.648 491.457 334.31 488.323 331.392C485.374 328.673 484.959 323.773 486.894 320.394C488.6 317.445 490.228 314.435 491.764 311.393C492.716 309.504 493.623 307.599 494.498 305.695C494.867 304.896 495.236 304.082 495.589 303.237C495.819 302.746 496.035 302.223 496.25 301.701C492.916 300.687 489.659 299.305 486.649 297.738C479.721 294.159 473.515 289.106 468.246 283.315C454.697 286.387 440.733 283.254 429.058 275.528C408.965 262.195 395.294 240.369 384.679 219.233C378.795 207.529 373.434 195.379 369.148 182.984C368.503 182.769 367.873 182.554 367.228 182.354C342.45 174.797 317.057 169.482 291.419 165.903H291.404C290.881 165.842 290.39 165.78 289.867 165.704C289.345 165.642 288.808 165.581 288.301 165.504C286.703 165.289 285.136 165.089 283.539 164.92C280.389 164.552 277.225 164.214 274.091 163.891C268.085 163.292 262.078 162.801 256.072 162.386C247.485 161.787 238.852 161.403 230.234 161.157C220.541 165.396 210.786 169.482 200.97 173.399C199.665 173.921 198.343 174.413 197.038 174.935C196.869 175.995 196.562 177.039 196.055 178.007C195.025 179.973 192.737 181.586 190.632 182.17C188.328 182.815 185.716 182.431 183.627 181.263C183.197 181.033 182.752 180.818 182.321 180.572C174.917 183.306 167.467 185.917 159.924 188.344C154.947 189.942 149.955 191.462 144.901 192.845C152.474 193.428 159.909 195.241 166.883 198.62C175.839 202.537 181.569 208.758 181.093 215.393C180.386 225.592 165.316 232.873 147.42 231.598C131.859 230.523 119.278 223.304 116.789 214.717C114.808 215.363 112.857 216.069 110.906 216.822C107.849 218.004 104.669 216.806 102.395 214.625C101.689 216.929 101.09 219.233 100.537 221.583C104.362 221.737 107.787 224.655 108.97 228.25C110.583 233.272 107.004 237.696 102.626 239.416C99.615 240.599 96.6195 241.782 93.6086 242.964C92.1954 243.625 90.7667 244.301 89.3688 245.038C85.6667 246.912 82.0875 249.001 78.6311 251.274C77.6019 251.965 76.588 252.672 75.5742 253.379C75.1594 253.686 73.2699 255.145 73.2546 255.145C71.7031 256.389 70.1976 257.618 68.7383 258.954C66.6645 260.828 64.7136 262.779 62.8395 264.852C62.0253 265.728 61.2419 266.634 60.4738 267.54C60.1512 267.955 59.8286 268.355 59.4907 268.769C59.337 268.984 59.0759 269.291 58.9684 269.46C55.6042 273.976 52.7009 278.907 50.4427 284.099C50.3505 284.375 49.7514 285.85 49.7361 285.911C49.3981 286.863 49.0448 287.831 48.7222 288.799C48.1999 290.365 47.7544 291.963 47.3243 293.576C46.8942 295.296 46.5102 297.047 46.1876 298.813C46.0339 299.581 45.9111 300.38 45.7728 301.164C45.7267 301.471 45.7114 301.655 45.6653 301.824C45.6653 301.978 45.6499 302.193 45.6192 302.484C45.0815 309.074 45.1276 315.51 45.7882 322.099C45.8343 322.299 45.8342 322.406 45.8496 322.529C45.8957 322.836 45.9418 323.113 45.9725 323.405C46.08 324.065 46.1876 324.741 46.3105 325.402C46.5409 326.845 46.8481 328.289 47.1553 329.702C47.7084 332.268 48.3843 334.802 49.1216 337.321C49.8743 339.886 50.7192 342.405 51.6563 344.893C51.9942 345.815 52.3475 346.752 52.7162 347.674C52.8698 348.012 53.0235 348.38 53.1617 348.733C54.3445 351.36 55.5581 353.987 56.9253 356.506C58.784 359.9 60.8271 363.172 63.0852 366.321C63.669 367.165 64.2527 368.087 64.944 368.84C65.1591 369.101 65.3741 369.331 65.4816 369.469C66.7106 370.975 67.9548 372.434 69.2759 373.878C71.9488 376.812 74.76 379.576 77.7094 382.234C79.2763 383.647 80.8892 385.029 82.5483 386.365C83.1474 386.842 85.9125 388.562 83.5622 387.21C84.361 387.656 85.0983 388.378 85.8203 388.915C92.8559 394.076 100.352 398.623 108.11 402.601C112.242 404.736 116.467 406.687 120.722 408.545C120.768 408.561 120.783 408.561 120.829 408.591C120.845 408.591 120.875 408.607 120.891 408.607C121.474 408.837 122.058 409.098 122.657 409.344C123.64 409.728 124.639 410.143 125.622 410.511C127.819 411.372 130.062 412.216 132.289 413.015C141.567 416.287 151.045 419.021 160.646 421.263C165.623 422.446 170.631 423.475 175.701 424.381C178.496 424.904 181.292 425.364 184.119 425.795C185.286 425.994 186.469 426.163 187.652 426.332C188.236 426.424 188.819 426.486 189.403 426.563C189.572 426.578 189.772 426.609 189.895 426.624C200.725 428.037 211.647 428.928 222.553 429.358C233.69 429.773 244.812 429.727 255.949 429.189C261.587 428.928 267.225 428.544 272.847 428.022C275.95 427.745 279.022 427.423 282.11 427.069C283.4 426.916 284.675 426.762 285.966 426.624C286.734 426.516 287.517 426.424 288.27 426.317C288.439 426.301 288.577 426.301 288.685 426.271C288.777 426.255 288.838 426.255 288.961 426.225C311.65 423.045 334.063 418.022 355.861 410.849C361.268 409.068 366.644 407.132 371.99 405.074C374.771 403.999 377.551 402.877 380.301 401.71C380.685 401.556 381.207 401.341 381.315 401.295C381.791 401.08 382.267 400.881 382.743 400.666C384.157 400.036 385.57 399.421 386.983 398.792C399.226 393.216 411.147 386.872 422.576 379.761C427.983 376.428 433.252 372.91 438.444 369.254C441.056 367.427 443.606 365.553 446.156 363.633C446.862 363.11 447.584 362.573 448.26 362.035C449.12 361.375 449.981 360.699 450.841 360.008C453.744 357.704 456.571 355.338 459.382 352.942C460.35 352.097 461.317 351.283 462.285 350.469C465.404 347.735 468.491 344.986 471.502 342.159C475.204 338.673 480.612 338.734 484.329 342.159C487.862 345.416 487.801 351.744 484.329 354.985C481.395 357.734 478.43 360.453 475.389 363.08C472.716 365.399 470.027 367.688 467.293 369.9L467.032 370.099C464.958 371.804 462.869 373.478 460.764 375.122C461.625 375.567 462.47 375.997 463.345 376.412C463.944 376.719 464.543 376.965 465.173 377.257C465.327 377.318 465.496 377.411 465.557 377.426C466.755 377.902 467.969 378.348 469.198 378.778C471.625 379.638 474.114 380.344 476.602 380.974C477.831 381.281 479.075 381.558 480.32 381.788C481.165 381.942 481.994 382.095 482.839 382.218C482.854 382.234 482.962 382.234 483.115 382.264C483.484 382.31 484.452 382.433 484.575 382.464C485.128 382.525 485.696 382.572 486.249 382.618C487.647 382.725 489.03 382.817 490.428 382.833C492.932 382.894 495.42 382.833 497.924 382.633C498.83 382.571 499.737 382.464 500.643 382.356C501.012 382.295 501.979 382.141 502.087 382.126C502.625 382.034 503.178 381.926 503.731 381.819C505.881 381.389 508.032 380.851 510.152 380.175C511.212 379.853 512.256 379.515 513.301 379.116C513.823 378.947 514.33 378.732 514.852 378.532C514.914 378.516 515.052 378.47 515.19 378.409C518.662 376.842 522.011 375.03 525.175 372.925C526.051 372.326 526.927 371.727 527.787 371.098C527.894 371.005 528.232 370.729 528.447 370.56C528.555 370.468 528.662 370.391 528.708 370.345C530.06 369.208 531.381 368.056 532.641 366.858C534.085 365.476 535.468 364.032 536.773 362.557C537.372 361.866 537.971 361.16 538.586 360.422C538.847 360.115 539.247 359.562 539.431 359.332C541.535 356.321 543.594 353.326 545.33 350.1C546.251 348.349 547.096 346.568 547.941 344.786C548.003 344.678 548.064 344.525 548.141 344.371L548.264 344.049C548.586 343.188 548.924 342.328 549.247 341.468C550.537 337.874 551.566 334.187 552.319 330.47C552.488 329.564 552.657 328.658 552.811 327.752C552.826 327.66 552.826 327.583 552.857 327.521C552.857 327.506 552.857 327.46 552.872 327.414C552.872 327.368 552.872 327.306 552.888 327.26C552.888 327.168 552.903 327.091 552.934 326.999C552.949 326.907 552.98 326.83 552.98 326.769V326.615C552.98 326.615 552.995 326.569 552.995 326.554C552.995 326.492 553.01 326.461 553.01 326.385C553.179 324.71 553.333 323.005 553.425 321.3C553.594 317.691 553.487 314.066 553.103 310.456L553.195 310.518ZM259.452 175.089C260.696 172.954 262.616 171.725 264.874 170.911C273.016 167.916 281.879 166.579 290.543 166.932C295.643 167.132 299.407 170.911 299.622 175.995C299.837 180.772 295.29 185.257 290.543 185.073C287.394 184.95 284.261 185.088 281.142 185.457C277.24 186.086 273.415 187.054 269.713 188.406C267.424 189.251 264.767 188.575 262.708 187.5C260.604 186.378 259.237 184.274 258.53 182.077C257.823 179.881 258.315 177.024 259.452 175.073V175.089ZM267.593 202.322C291.573 200.617 315.997 208.635 337.135 220.032C341.59 222.444 342.619 228.234 340.392 232.458C338.041 236.897 332.142 237.972 327.964 235.715C325.061 234.148 322.111 232.643 319.116 231.229C317.718 230.569 316.32 229.939 314.891 229.309C314.661 229.202 314.477 229.11 314.369 229.079C314.262 229.033 314.108 228.971 313.893 228.879C313.079 228.557 312.249 228.219 311.435 227.912C310.529 227.543 309.576 227.22 308.655 226.883C306.827 238.449 289.253 247.511 267.808 247.511C245.165 247.511 226.793 237.389 226.793 224.901C226.793 212.413 245.027 202.383 267.578 202.322H267.593ZM172.475 234.01C173.596 229.816 176.853 226.468 180.586 224.456C184.334 222.413 188.481 221.23 192.69 220.646C198.267 219.848 203.751 219.617 209.358 220.093C211.877 220.308 213.92 221.046 215.779 222.735C217.561 224.379 218.344 226.821 218.452 229.171C218.544 231.429 217.361 234.01 215.779 235.592C214.197 237.174 211.554 238.433 209.358 238.234C204.98 237.865 200.602 237.865 196.239 238.356C195.363 238.51 194.488 238.664 193.612 238.879C196.178 240.553 198.912 241.981 201.708 243.226C203.812 244.178 205.195 246.543 205.886 248.648C206.639 250.998 206.086 253.532 204.964 255.652C203.935 257.633 201.646 259.246 199.542 259.83C197.022 260.521 194.841 259.937 192.537 258.924C187.176 256.512 181.799 253.409 177.667 249.185C173.75 245.207 170.954 239.693 172.475 234.01ZM319.116 379.715C304.86 391.142 287.179 397.302 269.375 400.62C248.622 404.49 227.3 405.166 206.285 403.415C185.148 401.633 163.964 397.747 143.918 390.666C126.267 384.43 108.755 375.875 95.283 362.634C92.1185 359.516 89.1538 356.26 86.4348 352.758C77.7555 341.514 72.5019 327.936 73.1317 313.605C73.7308 299.412 78.8001 284.759 88.8773 274.483C95.836 267.372 105.007 263.163 114.976 263.071C124.024 262.979 132.949 265.805 141.398 268.662C152.781 272.517 164.072 276.695 175.624 280.044C183.028 282.194 190.524 284.068 198.082 285.635C202.199 286.479 206.301 287.232 210.433 287.892C212.476 288.215 214.519 288.538 216.593 288.814C216.654 288.814 216.716 288.829 216.793 288.829C216.946 288.845 217.023 288.876 217.069 288.876C217.346 288.922 217.622 288.937 217.929 288.983C218.836 289.091 219.757 289.198 220.664 289.306C234.105 290.857 247.593 291.348 261.126 291.287C271.188 291.241 281.28 290.765 291.358 291.195C300.114 291.563 308.793 292.746 316.781 296.556C326.213 301.041 332.557 309.857 336.136 319.442C344.063 340.716 336.628 365.645 319.131 379.684L319.116 379.715ZM362.743 268.539C360.5 272.778 354.34 274.314 350.315 271.795C346.828 269.614 343.187 267.709 339.439 266.02C339.239 265.928 338.994 265.82 338.794 265.743C338.256 265.528 337.719 265.329 337.181 265.114C335.937 264.637 334.662 264.207 333.371 263.793C330.729 262.932 328.025 262.226 325.322 261.642C323.816 261.32 322.28 261.059 320.759 260.797L320.237 260.736C320.237 260.736 320.068 260.721 319.761 260.675C319.131 260.613 318.517 260.552 317.887 260.475C315.245 260.244 312.587 260.137 309.945 260.137C307.764 260.152 305.598 260.244 303.416 260.413C302.495 260.506 301.558 260.613 300.636 260.69C300.621 260.69 300.574 260.69 300.544 260.705H300.39C300.236 260.721 300.083 260.767 299.975 260.797C299.822 260.813 299.668 260.813 299.561 260.844C294.522 261.612 290.052 259.615 288.393 254.515C287.01 250.214 290.036 244.07 294.737 243.348C317.165 239.877 340.1 244.009 359.455 256.113C363.756 258.801 365.047 264.084 362.712 268.539H362.743ZM320.759 332.513C320.744 332.36 320.744 332.252 320.713 332.145C320.698 332.022 320.652 331.884 320.621 331.699C320.253 330.132 319.976 328.535 319.5 326.968C319.269 326.216 319.024 325.432 318.747 324.68C318.686 324.511 318.194 323.389 318.117 323.236C317.518 322.007 316.888 320.809 316.151 319.657C315.828 319.135 315.49 318.643 315.137 318.152C314.722 317.676 314.323 317.184 313.893 316.708C313.34 316.124 312.756 315.587 312.142 315.049C312.08 315.003 312.034 314.941 311.988 314.895C311.927 314.803 311.788 314.726 311.65 314.619C311.604 314.573 311.543 314.557 311.496 314.527C311.343 314.404 311.189 314.266 311.066 314.143C311.159 314.235 311.22 314.312 311.297 314.404C310.206 313.697 309.1 313.006 307.917 312.422C307.979 312.422 308.025 312.438 308.086 312.468C307.979 312.422 307.856 312.376 307.748 312.346H307.733C307.533 312.238 307.349 312.146 307.18 312.084C306.412 311.808 305.628 311.547 304.86 311.316C303.355 310.871 301.819 310.518 300.267 310.241C299.852 310.149 299.453 310.088 299.023 310.026C299.038 310.011 299.069 310.011 299.084 310.011H298.977L298.531 309.949C298.055 309.857 297.794 309.903 297.733 309.949C297.21 309.857 296.703 309.75 296.304 309.719C294.476 309.565 292.648 309.458 290.82 309.381C286.334 309.212 281.849 309.228 277.363 309.289C266.226 309.412 255.104 309.658 243.998 309.243C229.143 308.705 214.35 307.108 199.726 304.435C185.716 301.855 171.952 298.199 158.434 293.714C148.68 290.504 139.094 286.756 129.232 283.837C127.097 283.208 124.961 282.639 122.796 282.132C121.935 281.963 121.09 281.764 120.23 281.61L119.385 281.487C117.619 281.334 115.898 281.18 114.132 281.257C113.594 281.272 113.056 281.318 112.519 281.364C112.242 281.426 111.966 281.472 111.704 281.533C110.829 281.733 109.953 281.964 109.124 282.24C108.97 282.255 108.755 282.301 108.463 282.47C108.417 282.516 108.356 282.532 108.294 282.563C108.141 282.624 107.972 282.685 107.818 282.716C107.926 282.716 108.018 282.701 108.095 282.67C106.804 283.361 105.575 284.099 104.346 284.913L104.3 284.959C103.962 285.235 103.64 285.512 103.317 285.804C102.779 286.295 102.242 286.817 101.719 287.34C100.982 288.092 100.322 288.875 99.6457 289.659C99.4153 289.966 98.9544 290.565 98.8469 290.719C98.4168 291.348 98.002 291.963 97.618 292.608C96.8192 293.929 96.0818 295.281 95.4059 296.648C95.1908 297.093 94.9758 297.554 94.7761 297.999C94.4996 298.737 94.2231 299.459 93.9619 300.196C93.5318 301.425 93.1631 302.653 92.8252 303.898C92.4104 305.403 92.0878 306.908 91.8113 308.444C91.7652 308.644 91.6116 309.581 91.5809 309.888C91.5194 310.38 91.4733 310.856 91.4273 311.347C91.1661 314.342 91.2276 317.261 91.4273 320.241C91.4426 320.502 91.4426 320.671 91.4426 320.824C91.458 320.947 91.5041 321.101 91.5348 321.3C91.7038 322.115 91.842 322.959 92.0264 323.773C92.3951 325.371 92.8252 326.938 93.3321 328.489C93.6393 329.395 93.9773 330.301 94.346 331.177C94.3613 331.238 94.392 331.3 94.4535 331.392C95.0987 332.728 95.7439 334.065 96.4812 335.355C97.7101 337.505 99.0927 339.533 100.552 341.53C100.706 341.683 101.965 343.296 102.273 343.634C102.979 344.479 103.686 345.277 104.454 346.061C105.637 347.336 106.866 348.58 108.11 349.809C109.446 351.114 110.829 352.389 112.273 353.603C112.979 354.202 113.732 354.785 114.454 355.384C114.623 355.538 114.823 355.661 114.992 355.799C121.751 360.822 129.186 364.923 136.821 368.41C137.988 368.947 139.325 369.362 140.415 370.007C138.003 368.594 141.183 370.314 141.951 370.606C143.933 371.405 145.915 372.142 147.912 372.864C152.413 374.477 156.975 375.921 161.583 377.211C171.169 379.899 180.924 381.942 190.755 383.447C191.6 383.57 192.429 383.708 193.274 383.816C193.366 383.831 193.489 383.862 193.658 383.877C194.611 384.031 195.548 384.108 196.5 384.246C199.019 384.553 201.554 384.799 204.073 385.044C209.127 385.521 214.197 385.843 219.251 386.012C228.944 386.335 238.652 386.135 248.315 385.306C250.88 385.075 253.461 384.814 256.026 384.492H256.041C256.164 384.445 256.303 384.43 256.456 384.43C256.871 384.338 257.301 384.323 257.7 384.261C258.653 384.138 259.621 383.985 260.558 383.816C265.043 383.109 269.467 382.203 273.845 381.097C278.008 380.068 282.11 378.854 286.135 377.411C287.271 377.027 288.393 376.596 289.499 376.166C289.929 375.997 290.344 375.828 290.743 375.675C292.341 374.938 293.923 374.231 295.474 373.463C298.808 371.789 302.018 369.884 305.075 367.734C305.49 367.457 305.874 367.15 306.274 366.874C306.765 366.459 307.257 366.059 307.764 365.645C309.054 364.523 310.298 363.341 311.481 362.112C312.142 361.405 312.818 360.668 313.447 359.931C313.54 359.823 313.616 359.7 313.709 359.562C313.862 359.332 313.985 359.117 314.093 358.917C314.799 357.842 315.659 356.828 316.305 355.753C316.735 355 317.165 354.217 317.549 353.434C317.718 353.126 318.317 351.652 318.363 351.56C319.346 348.78 320.084 345.984 320.621 343.081C320.637 342.973 320.637 342.927 320.667 342.866C320.713 342.543 320.729 342.221 320.775 341.883C320.821 341.222 320.882 340.547 320.898 339.855C320.99 338.243 320.99 336.599 320.898 334.971C320.836 334.157 320.775 333.358 320.698 332.544L320.759 332.513ZM292.433 351.053C280.589 353.526 268.576 355.246 256.518 356.137C255.857 356.198 255.166 356.229 254.49 356.26V365.445C254.49 370.529 250.312 374.292 245.411 374.523C240.496 374.738 236.333 370.176 236.333 365.445V356.797C204.596 356.598 172.859 350.469 143.242 339.164C138.464 337.336 135.699 333.174 136.897 327.997C137.911 323.543 143.61 319.964 148.065 321.669C155.93 324.664 163.934 327.306 172.029 329.564C180.647 331.96 189.357 333.911 198.175 335.416C200.678 335.831 203.167 336.215 205.686 336.584H205.702C206.255 336.645 206.792 336.707 207.345 336.799C208.59 336.952 209.819 337.075 211.047 337.213C216.148 337.766 221.278 338.166 226.394 338.396C229.712 338.565 233.03 338.627 236.348 338.657V330.04C236.348 324.956 240.511 321.193 245.427 320.978C250.342 320.763 254.505 325.309 254.505 330.04V338.089C256.18 337.981 257.869 337.889 259.544 337.751C265.059 337.275 269.498 336.737 273.753 336.077C278.408 335.37 283.016 334.51 287.594 333.542C292.586 332.513 297.18 334.986 298.762 339.886C300.206 344.34 297.087 350.07 292.433 351.053ZM300.421 260.721C300.267 260.736 300.113 260.782 300.006 260.813C300.206 260.813 300.39 260.767 300.559 260.721H300.405H300.421Z" fill="white"/>
<path d="M319.269 12.9178C327.995 12.9178 336.72 13.2403 345.399 13.8854C379.087 16.3738 412.237 23.6851 443.851 35.5277C457.508 23.9923 474.912 17.6794 492.563 17.6794C500.013 17.6794 507.525 18.8006 514.791 21.1354C522.564 23.6237 523.347 33.239 516.957 37.7242C506.926 44.7744 496.91 51.8246 486.879 58.8902C492.64 63.2371 498.108 67.9526 503.116 73.129C524.53 95.3088 536.174 123.894 539.062 154.383C540.276 167.27 539.953 180.787 536.589 193.352C535.836 196.178 534.868 198.989 533.67 201.646C542.856 200.095 552.043 198.528 561.229 196.977C562.043 196.838 562.857 196.762 563.641 196.762C566.006 196.762 568.203 197.468 570.062 199.311C572.228 201.477 573.441 205.148 572.397 208.143C565.438 228.05 558.479 247.957 551.505 267.863C554.547 270.92 557.342 274.253 559.846 277.878C580.4 307.615 572.658 349.548 549.677 375.506C536.789 390.067 518.908 398.776 499.66 400.758C497.094 401.019 494.529 401.142 491.964 401.142C475.373 401.142 458.721 395.796 444.742 386.934C413.927 407.962 379.717 423.66 343.541 433.628C309.392 443.044 273.707 447.898 238.161 447.898C226.286 447.898 214.427 447.36 202.629 446.254C161.645 442.445 119.247 432.445 84.2841 409.851C69.3527 400.205 55.9728 388.193 45.9725 373.417C35.1426 357.396 28.8905 337.905 27.339 318.72C26.9703 314.204 26.9857 309.704 27.3082 305.265C25.7414 304.466 24.3742 303.268 23.4218 301.793C17.0928 291.978 13.5597 280.581 12.9913 268.923C12.0389 249.323 20.6721 229.248 35.8646 216.745C48.1538 206.638 62.9931 201.477 78.4621 201.477C81.5498 201.477 84.6528 201.677 87.7712 202.092C89.0155 199.02 90.4595 196.04 92.0264 193.106C87.6483 190.28 84.1613 186.194 82.2564 180.495C78.9383 170.527 82.3947 158.223 90.5209 151.588C95.6363 147.41 102.027 145.213 108.417 145.213C111.075 145.213 113.732 145.597 116.282 146.365C118.156 143.555 120.015 140.744 121.889 137.933C118.356 137.487 114.854 136.504 111.981 134.538C95.8053 123.494 109.984 103.342 118.571 92.3904C127.849 80.5478 138.725 70.4102 150.8 61.4554C176.991 42.025 208.282 29.568 239.866 22.0723C265.811 15.9283 292.571 12.9024 319.285 12.9024M34.4053 248.648C34.4053 248.648 34.5896 248.233 34.6511 248.079C34.6357 248.125 34.605 248.172 34.5896 248.218C34.4514 248.525 34.4053 248.632 34.4053 248.632M31.5173 272.963C31.5173 272.963 31.5173 272.824 31.4559 272.532C31.4866 272.809 31.5173 272.963 31.5173 272.963ZM548.264 344.279C548.31 344.172 548.34 344.095 548.34 344.095C548.34 344.095 548.325 344.141 548.264 344.279ZM188.835 426.501C188.835 426.501 188.958 426.516 189.28 426.563L188.865 426.501H188.85M319.269 0C291.235 0 263.507 3.19488 236.87 9.50784C200.079 18.2323 168.527 32.2099 143.088 51.072C129.324 61.271 117.987 72.1767 108.386 84.4186C99.5228 95.7082 89.6607 110.623 92.011 125.783C92.4872 128.901 93.4703 131.85 94.9297 134.569C90.3827 136.151 86.1122 138.516 82.3332 141.588C70.1823 151.511 64.9901 169.59 69.9826 184.581C70.4741 186.04 71.0425 187.469 71.6877 188.836C55.4813 190.172 40.3809 196.301 27.6462 206.776C9.48888 221.722 -1.07986 245.775 0.0876194 269.553C0.778888 283.622 5.09547 297.185 12.5765 308.782C13.0681 309.535 13.5904 310.257 14.1588 310.948C14.128 313.943 14.2356 316.877 14.466 319.764C16.2633 341.821 23.6522 363.448 35.2809 380.652C45.5577 395.858 59.6903 409.344 77.2793 420.695C109.492 441.508 151.276 454.441 201.447 459.11C213.536 460.232 225.887 460.8 238.176 460.8C274.905 460.8 311.512 455.839 346.982 446.07C382.175 436.378 415.187 421.601 445.234 402.109C459.935 409.851 476.249 414.044 491.979 414.044C495.005 414.044 498.031 413.891 500.996 413.583C523.87 411.233 544.608 400.742 559.37 384.046C572.627 369.07 581.337 349.778 583.918 329.733C586.698 308.091 581.921 287.063 570.492 270.52C569.171 268.6 567.742 266.726 566.252 264.899L584.609 212.398C587.221 204.933 585.055 196.009 579.217 190.172C575.07 186.025 569.693 183.844 563.671 183.844C562.197 183.844 560.66 183.982 559.094 184.243L551.367 185.549C552.841 175.611 553.026 164.767 551.935 153.17C548.648 118.303 534.976 87.5213 512.425 64.1587C511.012 62.6995 509.553 61.2557 508.032 59.8272L509.368 58.8902L524.407 48.3072C531.566 43.2691 535.206 34.8826 533.916 26.4038C532.656 18.1862 526.85 11.4586 518.754 8.86271C510.321 6.15935 501.503 4.77696 492.578 4.77696C474.298 4.77696 456.479 10.4755 441.609 20.9664C410.793 10.1069 378.795 3.40993 346.367 1.01377C337.396 0.353286 328.287 0.0153633 319.3 0.0153633L319.269 0Z" fill="white"/>
</svg>
